<svg width="170" height="90" fill="none" xmlns="http://www.w3.org/2000/svg"><rect x=".5" y=".5" width="169" height="89" rx="3.5" stroke="#AFB1B8"/><g fill="#AFB1B8"><path d="M85.74 43.353a3.258 3.258 0 0 1-.57-2.057v-2.983c0-.914.19-1.609.567-2.084.379-.475 1.028-.712 1.949-.71.865 0 1.48.202 1.843.607.396.516.589 1.147.545 1.784v.7h-1.548v-.71a3.961 3.961 0 0 0-.045-.694.689.689 0 0 0-.221-.413.836.836 0 0 0-.561-.16.886.886 0 0 0-.59.17.81.81 0 0 0-.256.455c-.045.243-.065.49-.061.737v3.62a2 2 0 0 0 .198 1.016.735.735 0 0 0 .31.246.78.78 0 0 0 .399.058.788.788 0 0 0 .548-.164.747.747 0 0 0 .23-.44c.037-.24.053-.483.049-.725v-.735h1.548v.67a2.914 2.914 0 0 1-.536 1.876c-.355.443-.961.664-1.852.664-.891 0-1.564-.236-1.946-.728zM92.186 43.384c-.391-.465-.587-1.141-.587-2.036V38.21c0-.886.196-1.556.587-2.011.39-.455 1.044-.682 1.961-.68.91 0 1.56.227 1.952.68.39.455.59 1.125.59 2.011v3.138c0 .886-.2 1.565-.596 2.033-.398.467-1.045.7-1.946.7-.9 0-1.567-.236-1.961-.697zm2.682-.753c.14-.29.204-.61.186-.928V37.86a1.843 1.843 0 0 0-.183-.91.738.738 0 0 0-.316-.25.785.785 0 0 0-.408-.053.794.794 0 0 0-.41.054.749.749 0 0 0-.317.25c-.141.283-.205.596-.186.91v3.859c-.02.32.044.638.186.928a.96.96 0 0 0 .326.23 1.009 1.009 0 0 0 .796 0 .96.96 0 0 0 .326-.23v-.018zM98.55 35.61h1.667l1.253 5.789 1.282-5.789h1.622l.163 8.356h-1.198l-.128-5.807-1.238 5.807h-.961l-1.282-5.828-.119 5.828H98.4l.15-8.356zM106.406 35.61h2.596c1.495 0 2.243.791 2.243 2.373 0 1.515-.787 2.271-2.362 2.27h-.884v3.713h-1.603l.01-8.356zm2.218 3.571c.158.02.319.006.471-.04a1.12 1.12 0 0 0 .41-.224c.184-.282.265-.613.231-.943a2.891 2.891 0 0 0-.077-.759.635.635 0 0 0-.118-.229.67.67 0 0 0-.203-.168 1.527 1.527 0 0 0-.714-.134h-.622v2.497h.622zM113.556 35.61h1.721l1.766 8.356h-1.494l-.349-1.927h-1.535l-.359 1.927h-1.516l1.766-8.356zm1.471 5.461-.599-3.507-.6 3.507h1.199zM118.469 35.61h1.122l2.147 4.767V35.61h1.33v8.356h-1.067l-2.16-4.976v4.976h-1.375l.003-8.356zM126.183 40.78l-1.785-5.158h1.503l1.09 3.313 1.022-3.313h1.471l-1.762 5.158v3.186h-1.539V40.78zM88.215 47.62v.436h-1.308v3.395h-.548v-3.395h-1.314v-.437h3.17zM92.314 51.451h-.423a.175.175 0 0 1-.119-.036.195.195 0 0 1-.07-.088l-.379-.91H89.51l-.379.91a.256.256 0 0 1-.057.103.183.183 0 0 1-.119.037h-.423l1.603-3.832h.557l1.622 3.816zM89.66 50.03h1.513l-.641-1.56a2.964 2.964 0 0 1-.119-.36c-.022.072-.041.142-.06.202l-.058.161-.635 1.556zM95.076 51.075c.1.005.201.005.302 0a1.67 1.67 0 0 0 .256-.045c.079-.019.156-.042.23-.07.071-.028.142-.06.216-.094v-.862h-.641a.12.12 0 0 1-.087-.03.085.085 0 0 1-.032-.07v-.295h1.244v1.47a2.355 2.355 0 0 1-.677.312 2.653 2.653 0 0 1-.4.078 4.402 4.402 0 0 1-.468.025 2.25 2.25 0 0 1-.808-.143 1.934 1.934 0 0 1-.64-.4 1.848 1.848 0 0 1-.414-.607 2.074 2.074 0 0 1-.148-.795 2.155 2.155 0 0 1 .145-.801c.092-.227.233-.434.413-.607a1.91 1.91 0 0 1 .641-.398c.274-.097.566-.146.859-.142.15 0 .298.01.445.033.13.02.258.053.382.097.112.04.22.091.32.152.099.06.192.127.28.2l-.155.237a.14.14 0 0 1-.052.053.15.15 0 0 1-.073.02.197.197 0 0 1-.1-.03 1.935 1.935 0 0 1-.156-.092 1.36 1.36 0 0 0-.215-.103 1.87 1.87 0 0 0-.295-.085 2.256 2.256 0 0 0-.407-.033 1.746 1.746 0 0 0-.618.106c-.179.068-.34.171-.471.303-.133.138-.235.3-.299.477a1.953 1.953 0 0 0 0 1.277c.07.18.18.345.321.483.132.131.291.235.468.303.204.066.42.092.635.076zM100.185 51.014h1.75v.437H99.65V47.62h.548l-.013 3.395zM103.755 51.451h-.548V47.62h.548v3.832zM105.794 47.637a.268.268 0 0 1 .083.07l2.343 2.888a1.038 1.038 0 0 1 0-.136v-2.855h.477v3.847h-.275a.24.24 0 0 1-.119-.021.319.319 0 0 1-.086-.073l-2.34-2.886v2.98h-.458v-3.832h.285a.23.23 0 0 1 .09.018zM112.732 47.62v.42h-1.942v1.266h1.574v.407h-1.574v1.307h1.942v.422h-2.506V47.62h2.506zM55.303 23.954l24.335 6.541v22.922L55.303 46.88V23.954zM53.743 22v25.992l27.453 7.382v-25.99L53.743 22z"/><path d="M68.457 67.44 41 60.052v-25.99l27.457 7.385V67.44z"/><path d="m54.198 23.66 24.018 6.459L68 39.79l-24.02-6.462 10.217-9.67zM53.743 22 41 34.063l27.457 7.385 12.739-12.063L53.743 22zM70.001 65.978l11.195-10.6-11.195-3.013v13.613z"/></g></svg>