<svg width="170" height="90" fill="none" xmlns="http://www.w3.org/2000/svg"><rect x=".5" y=".5" width="169" height="89" rx="3.5" stroke="#AFB1B8"/><g fill="#AFB1B8"><path d="M71.346 65.795a.114.114 0 0 1 .08.034l.205.216c-.16.174-.357.314-.579.41-.26.103-.539.153-.82.146a2.01 2.01 0 0 1-.772-.137 1.672 1.672 0 0 1-.957-.985 2.164 2.164 0 0 1-.13-.767 2.017 2.017 0 0 1 .14-.77c.09-.223.226-.426.4-.598.175-.169.385-.302.617-.39.253-.093.523-.14.794-.137a1.97 1.97 0 0 1 .739.125c.203.084.39.201.552.346l-.172.23a.175.175 0 0 1-.043.042.11.11 0 0 1-.07.017.156.156 0 0 1-.075-.025l-.092-.061-.129-.078a1.401 1.401 0 0 0-.406-.138 1.625 1.625 0 0 0-.306-.024 1.529 1.529 0 0 0-.571.103 1.291 1.291 0 0 0-.448.289c-.128.133-.227.29-.29.46-.073.196-.109.402-.106.609-.003.21.033.419.106.617.062.17.16.325.285.459.118.124.264.221.427.284.168.066.348.1.53.098.105.001.21-.005.314-.02.17-.02.332-.076.475-.164.073-.045.14-.096.204-.152a.154.154 0 0 1 .097-.04zM77.287 64.71c.003.26-.044.52-.139.763a1.655 1.655 0 0 1-.387.592 1.754 1.754 0 0 1-.608.388 2.296 2.296 0 0 1-1.564 0 1.778 1.778 0 0 1-.605-.39 1.74 1.74 0 0 1-.39-.597 2.166 2.166 0 0 1 0-1.527c.087-.223.22-.427.39-.6a1.78 1.78 0 0 1 .605-.375 2.258 2.258 0 0 1 1.564 0c.228.088.435.22.607.39.17.17.301.37.388.59.096.245.143.505.14.767zm-.54 0a1.759 1.759 0 0 0-.098-.612 1.208 1.208 0 0 0-.71-.747 1.658 1.658 0 0 0-1.137 0 1.207 1.207 0 0 0-.712.747c-.13.4-.13.827 0 1.225a1.203 1.203 0 0 0 .712.745c.367.131.77.131 1.137 0 .166-.063.314-.161.435-.286.123-.134.217-.29.275-.459.07-.197.102-.404.098-.612zM81.34 65.353l.055.138c.02-.05.038-.093.059-.138a1.28 1.28 0 0 1 .067-.134l1.314-2.277c.026-.039.05-.063.075-.07a.323.323 0 0 1 .108-.013h.388v3.702h-.46v-2.837a1.128 1.128 0 0 1 0-.127l-1.322 2.308a.202.202 0 0 1-.078.084.216.216 0 0 1-.113.031h-.074c-.04 0-.08-.01-.113-.03a.198.198 0 0 1-.078-.085l-1.36-2.323v2.972h-.445V62.86h.388a.323.323 0 0 1 .108.012.15.15 0 0 1 .072.071l1.343 2.28a.813.813 0 0 1 .067.132zM86.287 65.17v1.386h-.514V62.86h1.147c.216-.004.432.023.64.08.167.046.321.124.453.231.114.1.202.224.257.363.06.15.09.311.088.473.002.162-.03.323-.096.472a1.014 1.014 0 0 1-.277.37 1.27 1.27 0 0 1-.456.246c-.2.06-.41.09-.62.085l-.622-.01zm0-.398h.622c.136.002.27-.017.4-.056a.845.845 0 0 0 .287-.16.651.651 0 0 0 .175-.244.767.767 0 0 0 .062-.311.678.678 0 0 0-.052-.302.707.707 0 0 0-.18-.252 1.033 1.033 0 0 0-.692-.199h-.622v1.524zM93.201 66.561h-.406a.18.18 0 0 1-.114-.034.227.227 0 0 1-.066-.086l-.35-.894h-1.757l-.363.894a.199.199 0 0 1-.064.084.18.18 0 0 1-.116.036h-.406l1.543-3.703h.535l1.564 3.703zm-2.546-1.374h1.45l-.612-1.508a2.61 2.61 0 0 1-.116-.348l-.059.194a1.85 1.85 0 0 1-.056.157l-.607 1.505zM95.423 62.876c.031.016.058.038.078.066l2.25 2.791V62.86h.46v3.702h-.257a.23.23 0 0 1-.105-.022.286.286 0 0 1-.082-.068l-2.248-2.79c.002.043.002.086 0 .128v2.753h-.46v-3.703h.272c.032-.001.063.005.092.017zM102.003 65.089v1.47h-.515v-1.47l-1.422-2.23h.46c.04-.003.079.009.111.032a.315.315 0 0 1 .07.083l.889 1.438c.036.062.067.118.093.172.026.054.046.105.064.157l.067-.16c.025-.058.054-.114.088-.169l.877-1.448a.362.362 0 0 1 .067-.078.16.16 0 0 1 .11-.037h.466l-1.425 2.24zM81.086 56.644c.224.027.45.05.68.069 3.47-1.48 6.406-3.9 8.44-6.96 2.035-3.06 3.077-6.624 2.998-10.246l-3.825-3.644a20.22 20.22 0 0 1-1.05 11.512c-1.465 3.67-3.973 6.88-7.243 9.27z"/><path d="m79.72 56.475.103.02c3.495-2.382 6.159-5.707 7.648-9.546a19.54 19.54 0 0 0 .707-11.99l-5.448-5.19a24.082 24.082 0 0 1 2.557 13.768c-.532 4.728-2.463 9.214-5.567 12.938zM98.196 43.786c-.925 3.98-3.173 7.568-6.41 10.234a20.218 20.218 0 0 1-3.045 2.082 18.187 18.187 0 0 0 7.08-3.813 17.09 17.09 0 0 0 4.585-6.4l-2.21-2.103z"/><path d="m97.33 43.2-3.147-2.997a18.474 18.474 0 0 1-2.952 9.67c-1.873 2.916-4.532 5.299-7.699 6.903h.016c.706 0 1.41-.04 2.111-.12a19.338 19.338 0 0 0 7.611-5.33 18.092 18.092 0 0 0 4.06-8.126zM80.176 27.58 76.423 24c-3.355 1.235-6.24 3.406-8.278 6.23-2.038 2.823-3.135 6.167-3.145 9.593.013 3.787 1.35 7.46 3.801 10.441 2.451 2.98 5.875 5.097 9.731 6.015 3.442-3.995 5.457-8.932 5.753-14.093.295-5.161-1.144-10.277-4.11-14.606zM106 42.65c-.014-4.493-1.893-8.797-5.227-11.974-3.334-3.176-7.852-4.967-12.567-4.98-2.179-.002-4.34.381-6.371 1.13l22.977 21.89A16.093 16.093 0 0 0 106 42.65z"/></g></svg>