<svg width="40" height="52" fill="none" xmlns="http://www.w3.org/2000/svg"><g clip-path="url(#a)" fill="#AFB1B8"><path d="M16.977 2.935h.137c.253 0 .526.025.796.048 1.193.084 2.377.263 3.542.534V.654A21.09 21.09 0 0 0 17.797.07 29.24 29.24 0 0 0 16.319 0h-.427c-2.475.01-4.94.327-7.336.946-2.73.68-5.351 1.747-7.784 3.166v28.397a31.634 31.634 0 0 1 7.42-2.892 32.36 32.36 0 0 1 6.227-.956h.084c.352-.018.703-.028 1.065-.03v-2.91a34.329 34.329 0 0 0-8.095 1.076c-.98.255-1.925.53-2.813.834l-1.012.344V5.833l.432-.208a28.275 28.275 0 0 1 10.517-2.683.627.627 0 0 1 .09 0c.403-.02.808-.03 1.205-.03h.455c.21.005.42.01.63.023z"/><path d="M24.11 5.932a25.915 25.915 0 0 1-4.234-.343c-.45-.076-.893-.168-1.323-.267v28.071c1.82.451 3.69.671 5.565.656a29.943 29.943 0 0 0 7.337-.943 29.815 29.815 0 0 0 7.786-3.166V2.05a31.775 31.775 0 0 1-7.417 2.893c-2.52.648-5.112.98-7.713.99zm11.225.486 1.012-.34v22.148l-.433.209a27.76 27.76 0 0 1-5.173 1.858c-2.163.56-4.386.848-6.62.857-.668 0-1.33-.028-1.973-.083l-.693-.062V8.228l.807.054c.587.038 1.194.056 1.854.056a34.264 34.264 0 0 0 8.406-1.078c.944-.25 1.882-.53 2.813-.842zM2.737 42.212a1.492 1.492 0 0 0-1.126-.455 1.676 1.676 0 0 0-.65.122 1.463 1.463 0 0 0-.832.842c-.08.2-.119.413-.116.628v3.794c-.01.268.042.533.149.778.09.195.219.368.38.509.151.128.329.22.52.27.185.051.376.078.567.078.211.002.42-.043.612-.132a1.6 1.6 0 0 0 .96-1.465v-.424h-.993v.338a.881.881 0 0 1-.058.338.608.608 0 0 1-.144.214.697.697 0 0 1-.415.145.504.504 0 0 1-.465-.204.899.899 0 0 1-.132-.508v-3.538c-.006-.196.036-.39.122-.567a.507.507 0 0 1 .485-.229.527.527 0 0 1 .443.214.806.806 0 0 1 .164.509v.328h.982v-.387a1.788 1.788 0 0 0-.121-.663 1.563 1.563 0 0 0-.332-.535zM8.629 42.169a1.765 1.765 0 0 0-1.128-.417c-.202 0-.403.037-.592.107A1.558 1.558 0 0 0 6 42.7c-.1.231-.15.482-.145.734v3.64c-.007.255.043.51.144.744.09.196.221.37.385.509.152.14.33.25.524.32a1.712 1.712 0 0 0 1.72-.32c.158-.142.286-.315.374-.509.102-.234.151-.489.144-.745v-3.639a1.77 1.77 0 0 0-.144-.735 1.643 1.643 0 0 0-.374-.531zm-.463 4.905a.654.654 0 0 1-.197.527.727.727 0 0 1-.934 0 .652.652 0 0 1-.197-.527v-3.639a.654.654 0 0 1 .197-.526.726.726 0 0 1 .934 0 .65.65 0 0 1 .197.526v3.64zM16.367 48.7v-6.89h-.953l-1.253 3.647h-.017L12.88 41.81h-.943v6.89h.984v-4.191h.018l.963 2.962h.491l.972-2.962h.017v4.19h.984zM21.958 42.294c-.151-.17-.343-.3-.556-.377a2.184 2.184 0 0 0-.714-.107h-1.462v6.89h.981v-2.691h.506c.307.014.611-.051.886-.188a1.43 1.43 0 0 0 .539-.527c.113-.183.19-.387.225-.6a4.9 4.9 0 0 0 .053-.783c.01-.331-.023-.662-.096-.984a1.467 1.467 0 0 0-.362-.633zm-.506 2.1a.868.868 0 0 1-.091.358.553.553 0 0 1-.253.242 1.007 1.007 0 0 1-.463.087h-.448v-2.342h.506a.941.941 0 0 1 .443.086.557.557 0 0 1 .23.254c.054.121.083.252.086.384v.458c0 .16.01.325 0 .473h-.01zM26.608 41.81h-.805l-1.518 6.89h.982l.288-1.48h1.338l.289 1.48h.981l-1.555-6.89zm-.906 4.471.483-2.497h.018l.48 2.497h-.981zM32.95 45.96h-.018l-1.483-4.15h-.943v6.89h.982v-4.143h.02l1.5 4.142h.923V41.81h-.981v4.15zM38.948 41.81l-.79 2.74h-.02l-.79-2.74H36.31l1.349 3.978v2.911h.981v-2.911l1.348-3.977h-1.04zM0 50.645h.473v1.327h.321v-1.327h.47v-.272H0v.272zM3.977 50.373l-.62 1.599h.341l.132-.364h.637l.137.364h.35l-.636-1.6h-.341zm-.05.966.217-.593.217.593h-.435zM7.908 51.382h.37v.206a.613.613 0 0 1-.38.135.404.404 0 0 1-.34-.153.669.669 0 0 1-.118-.417c0-.356.154-.534.46-.534a.337.337 0 0 1 .362.255l.316-.062c-.068-.312-.293-.47-.678-.47a.804.804 0 0 0-.559.206.78.78 0 0 0-.23.615.873.873 0 0 0 .205.6.776.776 0 0 0 .607.235.96.96 0 0 0 .678-.255v-.63h-.693v.27zM11.923 50.373h-.324v1.599h1.12V51.7h-.796v-1.327zM15.318 50.373h-.324v1.599h.324v-1.6zM18.637 51.44l-.656-1.067h-.313v1.599h.3v-1.045l.643 1.045h.322v-1.6h-.296v1.069zM21.637 51.268h.797v-.272h-.797v-.351h.857v-.272h-1.181v1.599h1.214V51.7h-.89v-.432zM28.912 51.003h-.63v-.63h-.321v1.599h.321v-.7h.63v.7h.322v-1.6h-.322v.631zM31.93 51.268h.8v-.272h-.8v-.351h.86v-.272H31.61v1.599h1.212V51.7h-.89v-.432zM36.023 51.268c.279-.043.42-.19.42-.445a.383.383 0 0 0-.157-.356.905.905 0 0 0-.468-.094h-.678v1.6h.322v-.67h.063a.43.43 0 0 1 .2.036c.047.029.086.07.114.117l.349.509h.384l-.195-.313a1.113 1.113 0 0 0-.354-.384zm-.324-.221h-.237v-.402h.253a.84.84 0 0 1 .326.038.208.208 0 0 1 .046.256.208.208 0 0 1-.061.07.91.91 0 0 1-.327.038zM39.11 51.268h.796v-.272h-.797v-.351h.86v-.272h-1.183v1.599H40V51.7h-.89v-.432z"/></g><defs><clipPath id="a"><path fill="#fff" d="M0 0h40v52H0z"/></clipPath></defs></svg>